<?xml version="1.0" encoding="UTF-8"?>
<svg id="Layer_1" xmlns="http://www.w3.org/2000/svg" version="1.1" viewBox="0 0 246.4 48.7">
  <!-- Generator: Adobe Illustrator 29.0.1, SVG Export Plug-In . SVG Version: 2.1.0 Build 192)  -->
  <defs>
    <style>
      .st0 {
        fill: #fff;
      }

      .st1 {
        fill: #ef5040;
      }
    </style>
  </defs>
  <g>
    <path class="st0" d="M89.4,16.2c1.9,0,3.5.4,5,1.2s2.6,2,3.4,3.6c.8,1.6,1.2,3.7,1.2,6.2v14.6h-9v-13.2c0-1.7-.3-3.1-.8-4.2-.5-1.1-1.6-1.6-3.1-1.6s-1.7.2-2.4.7c-.7.5-1.2,1.2-1.6,2-.4.9-.6,1.9-.6,3.1v13.2h-8.4v-13.2c0-1.7-.3-3.1-.9-4.2-.6-1.1-1.6-1.6-3-1.6s-1.7.2-2.4.7-1.2,1.1-1.6,2c-.4.9-.6,1.9-.6,3.1v13.2h-9.1v-24.8h9.1v3.5c.2-.6.8-1.3,1.6-1.9.8-.7,1.8-1.2,3-1.7s2.5-.7,3.8-.7,2.7.2,3.7.6c1,.4,1.8,1,2.4,1.7.6.7,1.1,1.5,1.5,2.4.3-.7.8-1.5,1.7-2.2.8-.7,1.9-1.3,3.1-1.8,1.3-.5,2.6-.7,4.1-.7Z"/>
    <path class="st0" d="M103.4,41.7v-24.8h9.2v24.8h-9.2Z"/>
    <path class="st0" d="M117.5,41.7V.1h9.2v20.4c.2-.6.6-1.2,1.4-1.9.8-.7,1.8-1.3,3-1.8s2.6-.7,4.2-.7c2.4,0,4.5.6,6.3,1.8,1.8,1.2,3.1,2.8,4.1,4.8,1,2,1.4,4.2,1.4,6.6s-.5,4.6-1.4,6.6c-1,2-2.3,3.6-4.1,4.7-1.8,1.2-3.9,1.8-6.3,1.8s-2.6-.2-3.8-.7-2.2-1.1-3.1-1.8c-.9-.7-1.5-1.5-1.9-2.2v4h-9.1ZM138.2,29.3c0-1.1-.2-2.1-.7-3-.5-.9-1.2-1.6-2-2.1s-1.8-.8-2.9-.8-2.1.3-3,.8c-.9.5-1.6,1.2-2.1,2.1-.5.9-.8,1.9-.8,3s.3,2.1.8,3c.5.9,1.2,1.6,2.1,2.1.9.5,1.9.8,3,.8s2-.3,2.9-.8,1.5-1.2,2-2.1c.5-.9.7-1.9.7-3Z"/>
    <path class="st0" d="M158.9,28.4c0,2,.4,3.5,1.1,4.7.7,1.2,2,1.8,3.7,1.8s3.1-.6,3.8-1.8c.7-1.2,1.1-2.8,1.1-4.7v-11.5h9.1v12.4c0,2.7-.5,5-1.6,6.9-1.1,2-2.7,3.5-4.8,4.5-2.1,1.1-4.6,1.6-7.6,1.6s-5.4-.5-7.5-1.6c-2.1-1.1-3.7-2.6-4.7-4.5-1.1-2-1.6-4.3-1.6-6.9v-12.4h9v11.5Z"/>
    <path class="st0" d="M181.4,16.9h24.6l-12.4,18.4h11.4v6.4h-25.6l12.4-18.4h-10.4v-6.4Z"/>
    <path class="st0" d="M207.4,16.9h24.6l-12.4,18.4h11.4v6.4h-25.6l12.4-18.4h-10.4v-6.4Z"/>
    <path class="st1" d="M240.2,42.4c-1.5,0-2.8-.5-3.9-1.6s-1.6-2.4-1.6-3.9.5-2.8,1.6-3.9,2.4-1.6,3.9-1.6,2.8.5,3.9,1.6c1.1,1.1,1.6,2.4,1.6,3.9s-.5,2.8-1.6,3.9c-1.1,1.1-2.4,1.6-3.9,1.6Z"/>
  </g>
  <path class="st0" d="M33.1,7.1H9.6C4.7,7.1.7,11,.7,16v23.6c0,5,4,9,9,9h23.6c4.9,0,8.9-4,8.9-8.9v-23.4c0-5.1-4.1-9.1-9.1-9.1ZM32.8,34.3l-7.8-7.2-4.3,4.6,7.7,7.1c-1.9,2-7.5,3.9-13.1,1-7.5-3.9-9.7-13.9-4.3-20.3s14.3-6.6,19.8-1c4.7,4.7,5.1,12.5,1.9,15.9Z"/>
</svg>