<svg xmlns="http://www.w3.org/2000/svg" viewBox="0 0 246.15 48.72"><defs><style>.cls-1{fill:#343333;}.cls-2{fill:#e84435;}</style></defs><g id="Calque_2" data-name="Calque 2"><g id="Layer_1" data-name="Layer 1"><path class="cls-1" d="M88.94,16.14a10.29,10.29,0,0,1,5,1.16,8.09,8.09,0,0,1,3.39,3.61,13.82,13.82,0,0,1,1.23,6.25V41.81H89.46V28.56a9.71,9.71,0,0,0-.79-4.22,3.15,3.15,0,0,0-3.13-1.61,4.2,4.2,0,0,0-2.46.73,4.73,4.73,0,0,0-1.65,2,7.59,7.59,0,0,0-.57,3.08V41.81H72.38V28.56a8.86,8.86,0,0,0-.87-4.22,3.16,3.16,0,0,0-3.05-1.61,4.36,4.36,0,0,0-2.46.71,4.59,4.59,0,0,0-1.63,2,7.86,7.86,0,0,0-.56,3.11V41.81H54.63v-25h9.18v3.56a4.92,4.92,0,0,1,1.6-1.93,11.38,11.38,0,0,1,6.91-2.35,9.2,9.2,0,0,1,3.71.65,6.79,6.79,0,0,1,2.44,1.75A9.37,9.37,0,0,1,80,20.91a5.87,5.87,0,0,1,1.68-2.21,10.48,10.48,0,0,1,3.16-1.84A11.46,11.46,0,0,1,88.94,16.14Z"/><path class="cls-1" d="M103,41.81v-25h9.24v25Z"/><path class="cls-1" d="M117.26,41.81V0h9.24V20.51a4.59,4.59,0,0,1,1.41-1.87,10.09,10.09,0,0,1,3-1.76,11.29,11.29,0,0,1,4.24-.74,11.06,11.06,0,0,1,6.32,1.79,11.92,11.92,0,0,1,4.13,4.78,15,15,0,0,1,1.46,6.64A15,15,0,0,1,145.61,36a11.76,11.76,0,0,1-4.13,4.77,11.13,11.13,0,0,1-6.32,1.78,10.21,10.21,0,0,1-3.79-.71A11.06,11.06,0,0,1,128.3,40a8.22,8.22,0,0,1-1.9-2.23v4ZM138,29.35a6.29,6.29,0,0,0-.74-3.05,5.5,5.5,0,0,0-4.94-2.9,5.86,5.86,0,0,0-3,.77,5.6,5.6,0,0,0-2.08,2.13,6.52,6.52,0,0,0,0,6.11,5.48,5.48,0,0,0,2.08,2.11,5.86,5.86,0,0,0,3,.76,5.58,5.58,0,0,0,2.9-.76,5.52,5.52,0,0,0,2-2.11A6.3,6.3,0,0,0,138,29.35Z"/><path class="cls-1" d="M158.89,28.41A8.83,8.83,0,0,0,160,33.17a4.94,4.94,0,0,0,7.58,0,8.92,8.92,0,0,0,1.11-4.76V16.86h9.12V29.38a14.13,14.13,0,0,1-1.66,7,11.2,11.2,0,0,1-4.79,4.57,18.65,18.65,0,0,1-15.16,0,11.15,11.15,0,0,1-4.77-4.57,14.23,14.23,0,0,1-1.64-7V16.86h9.09Z"/><path class="cls-1" d="M181.55,16.86h24.7L193.8,35.37h11.48v6.44H179.55L192,23.28H181.55Z"/><path class="cls-1" d="M207.65,16.86h24.71L219.9,35.37h11.48v6.44H205.65l12.42-18.53H207.65Z"/><path class="cls-2" d="M240.62,42.54a5.57,5.57,0,0,1-5.5-5.5,5.36,5.36,0,0,1,1.63-3.94,5.49,5.49,0,0,1,7.79,0A5.38,5.38,0,0,1,246.15,37a5.53,5.53,0,0,1-5.53,5.5Z"/><path class="cls-1" d="M38.28,7H3.46A3.46,3.46,0,0,0,0,10.45V45.26a3.46,3.46,0,0,0,3.46,3.46H38.28a3.46,3.46,0,0,0,3.46-3.46V10.45A3.46,3.46,0,0,0,38.28,7ZM32.35,34.34l-7.88-7.29-4.29,4.66L28,38.84c-2.29,2.46-10,4.68-16.59-1.49-5.42-5.07-5.23-13.77,0-19a13.45,13.45,0,0,1,19,0C35.16,23.12,35.52,31,32.35,34.34Z"/></g></g></svg>