<svg xmlns="http://www.w3.org/2000/svg" viewBox="0 0 246.39 48.71"><defs><style>.cls-1{fill:#fff;}.cls-2{fill:#e84435;}</style></defs><g id="Calque_2" data-name="Calque 2"><g id="Layer_1" data-name="Layer 1"><path class="cls-1" d="M89.18,16.14a10.3,10.3,0,0,1,5,1.16,8.13,8.13,0,0,1,3.38,3.61,13.82,13.82,0,0,1,1.23,6.25V41.81H89.7V28.56a9.57,9.57,0,0,0-.79-4.22,3.15,3.15,0,0,0-3.13-1.61,4.22,4.22,0,0,0-2.46.73,4.64,4.64,0,0,0-1.64,2,7.43,7.43,0,0,0-.58,3.08V41.81H72.62V28.56a9,9,0,0,0-.86-4.22,3.18,3.18,0,0,0-3.06-1.61,4.36,4.36,0,0,0-2.46.71,4.51,4.51,0,0,0-1.62,2,7.68,7.68,0,0,0-.57,3.11V41.81H54.88v-25h9.17v3.56a5,5,0,0,1,1.6-1.93,11.38,11.38,0,0,1,6.91-2.35,9.17,9.17,0,0,1,3.71.65,6.83,6.83,0,0,1,2.45,1.75,9.61,9.61,0,0,1,1.53,2.37,5.81,5.81,0,0,1,1.69-2.21,10.36,10.36,0,0,1,3.16-1.84A11.37,11.37,0,0,1,89.18,16.14Z"/><path class="cls-1" d="M103.25,41.81v-25h9.24v25Z"/><path class="cls-1" d="M117.5,41.81V0h9.24V20.51a4.59,4.59,0,0,1,1.41-1.87,10.09,10.09,0,0,1,3-1.76,11.33,11.33,0,0,1,4.24-.74,11,11,0,0,1,6.32,1.79,11.92,11.92,0,0,1,4.13,4.78,15,15,0,0,1,1.46,6.64A15,15,0,0,1,145.85,36a11.76,11.76,0,0,1-4.13,4.77,11.11,11.11,0,0,1-6.32,1.78,10.12,10.12,0,0,1-3.78-.71A10.92,10.92,0,0,1,128.55,40a8,8,0,0,1-1.9-2.23v4Zm20.76-12.46a6.18,6.18,0,0,0-.75-3.05,5.64,5.64,0,0,0-2-2.13,5.56,5.56,0,0,0-2.9-.77,5.86,5.86,0,0,0-3,.77,5.6,5.6,0,0,0-2.08,2.13,6.52,6.52,0,0,0,0,6.11,5.48,5.48,0,0,0,2.08,2.11,5.86,5.86,0,0,0,3,.76,5.5,5.5,0,0,0,4.94-2.87A6.19,6.19,0,0,0,138.26,29.35Z"/><path class="cls-1" d="M159.13,28.41a8.83,8.83,0,0,0,1.12,4.76,4.94,4.94,0,0,0,7.58,0,8.92,8.92,0,0,0,1.11-4.76V16.86h9.12V29.38a14,14,0,0,1-1.66,7,11.23,11.23,0,0,1-4.78,4.57,18.67,18.67,0,0,1-15.17,0,11.2,11.2,0,0,1-4.77-4.57,14.23,14.23,0,0,1-1.64-7V16.86h9.09Z"/><path class="cls-1" d="M181.79,16.86H206.5L194,35.37h11.49v6.44H179.79l12.43-18.53H181.79Z"/><path class="cls-1" d="M207.9,16.86h24.7L220.14,35.37h11.49v6.44H205.89l12.43-18.53H207.9Z"/><path class="cls-2" d="M240.86,42.54a5.57,5.57,0,0,1-5.5-5.5A5.4,5.4,0,0,1,237,33.1a5.49,5.49,0,0,1,7.79,0A5.38,5.38,0,0,1,246.39,37a5.53,5.53,0,0,1-5.53,5.5Z"/><path class="cls-1" d="M38.28,7H3.46A3.46,3.46,0,0,0,0,10.44V45.25a3.46,3.46,0,0,0,3.46,3.46H38.28a3.46,3.46,0,0,0,3.46-3.46V10.44A3.46,3.46,0,0,0,38.28,7Zm-6,27.34L24.42,27l-4.29,4.67,7.77,7.13c-2.29,2.46-10,4.67-16.58-1.49-5.43-5.07-5.24-13.77,0-19a13.44,13.44,0,0,1,19,0C35.11,23.1,35.47,30.92,32.3,34.31Z"/></g></g></svg>