<?xml version="1.0" encoding="UTF-8"?>
<svg id="Layer_1" xmlns="http://www.w3.org/2000/svg" version="1.1" viewBox="0 0 246.1 48.7">
  <!-- Generator: Adobe Illustrator 29.0.1, SVG Export Plug-In . SVG Version: 2.1.0 Build 192)  -->
  <defs>
    <style>
      .st0 {
        fill: #383638;
      }

      .st1 {
        fill: #ef5040;
      }
    </style>
  </defs>
  <g>
    <path class="st0" d="M88.6,17.2c1.9,0,3.5.4,5,1.2s2.6,2,3.4,3.6,1.2,3.7,1.2,6.2v14.6h-9v-13.2c0-1.7-.3-3.1-.8-4.2-.5-1.1-1.6-1.6-3.1-1.6s-1.7.2-2.5.7c-.7.5-1.3,1.2-1.6,2-.4.9-.6,1.9-.6,3.1v13.2h-8.4v-13.2c0-1.7-.3-3.1-.9-4.2-.6-1.1-1.6-1.6-3-1.6s-1.7.2-2.5.7-1.2,1.1-1.6,2c-.4.9-.6,1.9-.6,3.1v13.2h-9.1v-24.8h9.1v3.5c.2-.6.8-1.3,1.6-1.9.8-.7,1.8-1.2,3-1.7s2.5-.7,3.8-.7,2.7.2,3.7.7c1,.4,1.8,1,2.4,1.7.6.7,1.1,1.5,1.5,2.4.3-.7.8-1.5,1.7-2.2.8-.7,1.9-1.3,3.1-1.8,1.3-.5,2.6-.7,4.1-.7Z"/>
    <path class="st0" d="M102.6,42.8v-24.8h9.2v24.8h-9.2Z"/>
    <path class="st0" d="M116.8,42.8V1.1h9.2v20.4c.2-.6.7-1.2,1.4-1.9.8-.7,1.8-1.3,3-1.8s2.6-.7,4.2-.7c2.4,0,4.5.6,6.3,1.8,1.8,1.2,3.1,2.8,4.1,4.8,1,2,1.5,4.2,1.5,6.6s-.5,4.6-1.5,6.6c-1,2-2.3,3.6-4.1,4.8-1.8,1.2-3.9,1.8-6.3,1.8s-2.6-.2-3.8-.7-2.2-1.1-3.1-1.8c-.9-.7-1.5-1.5-1.9-2.2v4h-9.1ZM137.4,30.4c0-1.1-.2-2.1-.7-3-.5-.9-1.2-1.6-2-2.1s-1.8-.8-2.9-.8-2.1.3-3,.8c-.9.5-1.6,1.2-2.1,2.1-.5.9-.8,1.9-.8,3s.3,2.1.8,3c.5.9,1.2,1.6,2.1,2.1.9.5,1.9.8,3,.8s2-.3,2.9-.8,1.5-1.2,2-2.1c.5-.9.7-1.9.7-3Z"/>
    <path class="st0" d="M158.2,29.4c0,2,.4,3.6,1.1,4.7.7,1.2,2,1.8,3.8,1.8s3.1-.6,3.8-1.8c.7-1.2,1.1-2.8,1.1-4.7v-11.5h9.1v12.5c0,2.7-.6,5-1.6,6.9-1.1,2-2.7,3.5-4.8,4.6-2.1,1.1-4.6,1.6-7.6,1.6s-5.5-.5-7.5-1.6c-2.1-1.1-3.7-2.6-4.8-4.6-1.1-2-1.6-4.3-1.6-6.9v-12.5h9v11.5Z"/>
    <path class="st0" d="M180.8,17.9h24.6l-12.4,18.4h11.4v6.4h-25.6l12.4-18.5h-10.4v-6.4Z"/>
    <path class="st0" d="M206.8,17.9h24.6l-12.4,18.4h11.4v6.4h-25.6l12.4-18.5h-10.4v-6.4Z"/>
    <path class="st1" d="M239.6,43.5c-1.5,0-2.8-.5-3.9-1.6s-1.6-2.4-1.6-3.9.5-2.8,1.6-3.9,2.4-1.6,3.9-1.6,2.8.5,3.9,1.6c1.1,1.1,1.6,2.4,1.6,3.9s-.5,2.8-1.6,3.9c-1.1,1.1-2.4,1.6-3.9,1.6Z"/>
  </g>
  <path class="st0" d="M32.5,8.1H9c-5,0-9,4-9,9v23.6c0,5,4,9,9,9h23.6c4.9,0,9-4,9-9v-23.6c0-5-4-9-9-9ZM31.9,35.4l-7.8-7.3-4.3,4.6,7.7,7.1c-1.9,2-7.5,3.9-13.1,1-7.5-3.9-9.7-13.9-4.3-20.4,5.1-6.2,14.3-6.6,19.9-1,4.7,4.8,5.1,12.5,1.9,15.9Z"/>
</svg>